<?xml version="1.0" standalone="no"?>
<!DOCTYPE svg PUBLIC "-//W3C//DTD SVG 20010904//EN"
 "http://www.w3.org/TR/2001/REC-SVG-20010904/DTD/svg10.dtd">
<svg version="1.0" xmlns="http://www.w3.org/2000/svg"
 width="2079.000000pt" height="2249.000000pt" viewBox="0 0 2079.000000 2249.000000"
 preserveAspectRatio="xMidYMid meet">

<g transform="translate(0.000000,2249.000000) scale(0.100000,-0.100000)"
fill="#000000" stroke="none">
<path d="M10118 21152 l-1008 -337 0 -167 0 -168 -1867 -2 -1868 -3 -3 -3667
-2 -3668 -2185 0 -2185 0 0 -3500 0 -3500 219 0 c217 0 220 0 236 -22 8 -13
138 -242 288 -511 150 -268 277 -485 282 -483 6 1 463 153 1018 336 l1007 334
0 173 0 173 2230 0 2230 0 0 525 0 525 563 -2 562 -3 3 -3087 2 -3088 206 -2
205 -3 279 -499 c154 -274 281 -500 283 -502 2 -2 460 149 1018 335 l1014 338
3 166 2 167 1880 0 1880 0 0 3645 0 3645 2190 0 2190 0 0 3520 0 3520 -247 0
-248 0 -284 508 -284 509 -1016 -338 -1016 -337 -3 -171 -2 -171 -2215 0
-2215 0 0 -515 0 -515 -540 0 -540 0 -2 3083 -3 3082 -236 3 -235 2 -281 502
c-154 276 -284 503 -289 504 -5 1 -462 -149 -1016 -334z m1019 253 c5 -4 2 -5
-6 0 -9 5 -12 3 -9 -6 3 -8 10 -13 16 -12 7 2 9 -4 5 -14 -5 -12 -3 -14 7 -8
8 5 11 4 7 -2 -4 -6 25 -66 64 -134 109 -189 409 -728 409 -734 0 -3 -556 -5
-1235 -5 l-1236 0 3 143 3 142 965 321 c531 177 973 321 982 320 10 -1 21 -6
25 -11z m23 -1080 l0 -105 -335 0 -335 0 0 98 c0 54 3 102 7 105 3 4 154 7
335 7 l328 0 0 -105z m-730 -5 l0 -100 -630 0 -630 0 0 100 0 100 630 0 630 0
0 -100z m720 -460 c0 -165 -1 -300 -3 -300 -1 0 -137 135 -302 300 l-300 300
303 0 302 0 0 -300z m-2940 -222 l0 -503 -322 -322 -323 -323 -927 0 -928 0 0
825 0 825 1250 0 1250 0 0 -502z m2622 115 l388 -388 0 388 0 387 310 0 310 0
0 -2210 0 -2210 -1267 0 -1268 0 -373 378 -373 377 -6 1833 -6 1832 949 0 949
0 387 -387z m-2352 -918 l0 -296 -97 3 -98 3 -3 280 c-1 154 0 285 3 292 3 9
32 13 100 13 l95 0 0 -295z m-260 272 c0 -1 -75 -76 -167 -167 l-168 -165 165
168 c153 155 170 172 170 164z m-10 -82 c-9 -11 -9 -15 -1 -15 8 0 11 -63 9
-232 l-3 -233 -237 -3 c-141 -1 -238 1 -238 7 0 5 97 104 216 219 118 116 214
213 212 216 -2 2 8 16 21 30 26 28 42 36 21 11z m-2580 -715 l0 -711 -102 3
-103 3 -3 708 -2 707 105 0 105 0 0 -710z m2443 173 c-90 -2 -236 -2 -325 0
-90 1 -17 3 162 3 179 0 252 -2 163 -3z m137 -1018 l0 -815 -1250 0 -1250 0 0
815 0 815 1250 0 1250 0 0 -815z m-430 -940 l0 -55 -295 0 -295 0 0 55 0 55
295 0 295 0 0 -55z m-648 -1157 c-1 -574 -4 -1056 -6 -1073 -1 -16 -4 453 -4
1043 -1 589 1 1072 6 1072 4 0 6 -469 4 -1042z m353 752 c-159 -159 -291 -287
-294 -285 -2 3 4 12 15 20 11 8 14 15 7 15 -10 0 -13 60 -13 265 l0 266 276
-1 c152 -1 279 1 282 4 3 3 8 6 11 6 3 0 -124 -130 -284 -290z m-545 -115 l0
-395 -620 0 -620 0 0 395 0 395 620 0 620 0 0 -395z m1280 -110 l0 -505 595 0
595 0 0 -1340 0 -1340 -38 0 c-36 0 -52 15 -412 375 -206 206 -378 375 -382
375 -5 0 -8 -169 -8 -375 l0 -375 -25 0 -25 0 -2 783 -3 782 -687 3 -688 2 0
708 0 707 352 352 353 353 187 0 188 0 0 -505z m712 103 l270 -278 -291 0
-291 0 0 297 0 296 21 -19 c12 -10 143 -144 291 -296z m10814 235 c39 -70 40
-87 1 -20 -14 23 -35 53 -47 65 -18 19 -19 23 -6 20 9 -1 33 -31 52 -65z m-44
20 c27 -30 93 -144 306 -523 112 -201 206 -368 209 -372 2 -5 -552 -8 -1231
-8 l-1236 0 0 145 0 144 778 257 c427 141 856 282 952 314 96 32 182 59 191
59 9 1 23 -7 31 -16z m-11142 -193 c0 -11 -4 -20 -10 -20 -5 0 -10 9 -10 20 0
11 5 20 10 20 6 0 10 -9 10 -20z m-2930 -375 l0 -325 -105 0 -105 0 0 325 0
325 105 0 105 0 0 -325z m2930 195 c0 -47 -5 -92 -10 -100 -7 -10 -10 22 -10
100 0 78 3 110 10 100 5 -8 10 -53 10 -100z m708 -322 l-3 -103 -322 -3 -323
-2 0 105 0 105 325 0 326 0 -3 -102z m-2328 -74 l0 -57 -134 -141 c-351 -371
-404 -431 -387 -438 9 -4 130 -7 269 -7 l252 -1 0 -25 0 -25 -620 0 -620 0 0
50 0 50 130 0 130 0 0 235 0 235 -130 0 -130 0 0 90 0 90 620 0 620 0 0 -56z
m130 -329 l0 -245 -41 0 c-33 0 -40 3 -35 16 3 9 6 119 6 245 l0 229 35 0 35
0 0 -245z m4780 -328 l0 -563 -283 -282 c-156 -155 -282 -284 -280 -286 2 -2
-4 -9 -14 -17 -14 -11 -15 -11 -9 0 7 10 2 12 -23 6 l-31 -7 -1 114 c0 62 -1
178 -2 258 l-2 145 -777 3 -778 2 0 119 0 119 346 363 345 364 -148 6 c-81 4
-237 7 -345 8 l-198 1 0 105 0 105 1100 0 1100 0 0 -563z m-4910 288 l0 -205
-196 0 c-191 0 -195 0 -182 19 16 23 368 391 374 391 2 0 4 -92 4 -205z
m-1040 5 l0 -170 -100 0 -100 0 0 170 0 170 100 0 100 0 0 -170z m13167 3 c-2
-32 -3 -6 -3 57 0 63 1 89 3 58 2 -32 2 -84 0 -115z m-3777 57 l0 -100 -337 2
-338 3 -3 98 -3 97 341 0 340 0 0 -100z m3710 0 l0 -100 -625 0 -625 0 0 100
0 100 625 0 625 0 0 -100z m720 0 l0 -100 -320 0 -320 0 0 100 0 100 320 0
320 0 0 -100z m-7605 -360 l0 -375 -97 -3 -98 -3 0 381 0 381 98 -3 97 -3 0
-375z m-2525 -25 l0 -325 -55 0 -55 0 0 325 0 325 55 0 55 0 0 -325z m569 278
c-206 -215 -318 -337 -314 -341 7 -8 -46 -62 -55 -57 -10 6 -122 -114 -115
-124 2 -5 -5 -17 -17 -27 l-21 -19 7 169 c3 93 6 231 6 308 l0 138 277 0 277
0 -45 -47z m4111 -765 l0 -168 -239 0 -239 0 -5 33 c-4 17 -25 214 -48 435
-34 321 -40 405 -30 412 9 5 101 -81 287 -269 l273 -276 1 -167z m-625 670 c3
-24 23 -214 45 -423 22 -209 43 -399 46 -422 l6 -43 264 0 264 0 0 -125 0
-125 -350 0 -350 0 0 590 0 590 34 0 c33 0 35 -2 41 -42z m625 -188 c0 -126
-1 -230 -3 -230 -1 0 -106 104 -232 230 l-230 230 233 0 232 0 0 -230z m1820
-905 l0 -1135 -105 0 -105 0 0 355 c0 195 -3 355 -8 355 -4 0 -167 -160 -362
-355 l-355 -355 -87 0 -88 0 0 830 0 830 -240 0 -240 0 0 305 0 305 795 0 795
0 0 -1135z m4387 -1283 c-1 -444 -2 -80 -2 808 0 888 1 1252 2 807 2 -444 2
-1170 0 -1615z m-1068 2026 l386 -383 6 380 c3 209 6 381 7 383 1 1 148 2 327
2 l325 0 0 -1601 0 -1602 -1686 5 -1686 5 -334 334 -334 334 0 1262 0 1263
1302 0 1301 0 386 -382z m321 86 l0 -296 -87 80 c-49 44 -185 178 -303 296
l-215 216 303 0 302 0 0 -296z m-5280 36 l0 -250 -60 0 -60 0 0 250 0 250 60
0 60 0 0 -250z m-7510 -310 l0 -170 -625 0 -625 0 0 170 0 170 625 0 625 0 0
-170z m7980 -890 l0 -800 -210 0 -210 0 0 800 0 800 210 0 210 0 0 -800z
m-1660 -45 l0 -755 -94 0 -94 0 -322 290 c-177 160 -326 290 -331 290 -5 0 -9
-127 -9 -290 l0 -290 -115 0 -115 0 0 755 0 755 540 0 540 0 0 -755z m-5480
675 l0 -40 -295 0 -295 0 0 40 0 40 295 0 295 0 0 -40z m5740 -130 l0 -150
-105 0 -105 0 0 150 0 150 105 0 105 0 0 -150z m-2380 -145 l0 -225 -742 2
-743 3 -3 223 -2 222 745 0 745 0 0 -225z m660 -5 l0 -220 -215 0 c-118 0
-215 3 -215 7 0 7 421 433 427 433 2 0 3 -99 3 -220z m-3973 -108 c-1 -53 -3
-7 -3 103 0 110 2 154 3 97 2 -57 2 -147 0 -200z m-567 186 c59 -57 210 -202
336 -323 l229 -220 7 45 c3 25 7 170 7 323 l1 277 170 0 170 0 0 -1300 0
-1300 -833 0 c-459 0 -1017 -3 -1240 -7 l-407 -6 0 1306 0 1307 726 0 726 0
108 -102z m498 -125 c-2 -126 -5 -234 -8 -242 -3 -7 0 -15 7 -18 9 -3 13 17
16 69 l3 73 2 -82 c1 -46 -2 -83 -6 -83 -12 0 -43 36 -37 42 3 3 -98 105 -225
228 -126 122 -230 227 -230 231 0 5 108 9 241 9 l240 0 -3 -227z m-2128 -198
l0 -365 -100 0 -100 0 0 365 0 365 100 0 100 0 0 -365z m6227 73 c-2 -35 -3
-7 -3 62 0 69 1 97 3 63 2 -35 2 -91 0 -125z m2413 -503 l0 -475 -77 0 -78 0
-272 272 -273 273 0 202 0 203 350 0 350 0 0 -475z m-2452 358 l3 -33 -260 0
-261 0 0 35 0 35 258 -2 257 -3 3 -32z m1702 -93 l0 -130 -105 0 -105 0 0 130
0 130 105 0 105 0 0 -130z m-2600 -215 c0 -172 3 -227 13 -230 6 -2 208 -27
447 -55 239 -28 445 -53 458 -55 19 -5 22 -12 22 -50 l0 -45 -585 0 -585 0 0
323 c0 178 3 327 7 330 3 4 55 7 115 7 l108 0 0 -225z m-370 -110 l0 -315
-184 0 -184 0 -259 271 c-192 202 -260 279 -264 303 l-6 31 -2 -29 c0 -16 -4
-27 -7 -23 -4 3 -3 22 0 42 l7 35 449 0 450 0 0 -315z m1300 70 c0 -135 -3
-245 -8 -245 -4 0 -194 23 -422 50 -228 28 -420 50 -427 50 -10 0 -13 44 -13
195 l0 195 435 0 435 0 0 -245z m-2260 -100 l0 -245 -55 0 -55 0 0 245 0 245
55 0 55 0 0 -245z m2528 68 l-3 -168 -97 -3 -98 -3 0 171 0 170 100 0 100 0
-2 -167z m-3491 -10 c-2 -27 -3 -5 -3 47 0 52 1 74 3 48 2 -27 2 -69 0 -95z
m7193 -153 l0 -290 -292 0 -293 0 290 290 c159 160 291 290 292 290 2 0 3
-130 3 -290z m-6797 -110 c114 -113 207 -208 207 -212 0 -5 -133 -8 -295 -8
l-295 0 0 297 0 298 88 -85 c48 -47 180 -177 295 -290z m812 188 c94 -98 176
-188 184 -199 13 -19 10 -19 -178 -19 l-191 0 0 200 c0 110 3 200 8 199 4 -1
84 -82 177 -181z m2915 -138 c113 -101 216 -194 230 -207 l25 -23 -273 0 -272
0 0 247 0 247 43 -40 c23 -23 134 -123 247 -224z m1075 -30 l200 -200 -203 0
-202 0 0 200 c0 110 1 200 3 200 1 0 92 -90 202 -200z m-9095 20 l0 -90 -335
0 -335 0 0 90 0 90 335 0 335 0 0 -90z m5003 -127 c-18 -2 -48 -2 -65 0 -18 2
-4 4 32 4 36 0 50 -2 33 -4z m-6398 -20 c-1161 -7 -2023 -7 -2018 0 2 4 556 6
1231 5 675 -2 1029 -4 787 -5z m1688 0 c-193 -2 -513 -2 -710 0 -197 1 -38 2
352 2 391 0 552 -1 358 -2z m-1266 -680 c-4 -351 -7 -831 -7 -1068 0 -261 -4
-424 -9 -416 -8 12 -18 8 -55 -23 -56 -45 -302 -274 -521 -483 l-160 -153
-827 0 -828 0 0 1390 0 1390 1207 0 1206 0 -6 -637z m1593 -290 l0 -928 -347
-347 -348 -348 348 0 347 0 0 -115 0 -115 -685 0 -685 0 0 114 0 114 298 5
c285 4 342 9 342 28 0 16 -139 171 -391 436 l-249 262 0 911 0 910 685 0 685
0 0 -927z m7710 782 l0 -65 -300 0 -300 0 0 65 0 65 300 0 300 0 0 -65z m1038
53 c7 -7 12 -36 12 -65 l0 -53 -255 0 -255 0 0 60 0 60 223 3 c122 1 231 3
243 5 11 1 25 -3 32 -10z m1722 -58 l0 -60 -315 0 -315 0 0 60 0 60 315 0 315
0 0 -60z m-6525 -15 l0 -30 -327 -3 -328 -2 0 35 0 35 328 -2 327 -3 0 -30z
m905 -335 c0 -226 -2 -250 -17 -260 -17 -10 -17 -10 0 -20 15 -10 17 -32 17
-230 l0 -220 -310 0 -310 0 0 -185 0 -185 -405 0 c-223 0 -405 -3 -405 -8 0
-4 182 -189 405 -412 l405 -405 0 -217 0 -218 50 0 50 0 0 -470 0 -470 -585 0
-585 0 0 1775 0 1775 845 -1 845 0 0 -249z m268 103 l-3 -147 -100 -78 c-55
-42 -103 -77 -107 -78 -5 0 -8 101 -8 225 l0 225 110 0 111 0 -3 -147z m222
-103 l0 -250 -90 0 -90 0 0 91 c0 81 2 93 22 108 l21 18 -21 21 c-20 20 -22
33 -22 135 0 63 3 117 7 120 3 4 44 7 90 7 l83 0 0 -250z m240 0 l0 -250 -100
0 -100 0 0 250 0 250 100 0 100 0 0 -250z m210 0 l0 -250 -80 0 -80 0 0 250 0
250 80 0 80 0 0 -250z m228 -2 l2 -248 -95 0 -95 0 0 243 c0 134 3 247 7 251
4 4 46 5 93 4 l85 -3 3 -247z m222 2 l0 -250 -90 0 -90 0 0 250 0 250 90 0 90
0 0 -250z m220 0 l0 -250 -85 0 -85 0 0 250 0 250 85 0 85 0 0 -250z m209 244
l31 -6 0 -244 0 -244 -95 0 -95 0 0 250 0 250 64 0 c35 0 78 -3 95 -6z m1241
-1774 l0 -1770 -845 0 -845 0 0 231 c0 209 2 233 18 245 16 13 16 15 0 25 -16
9 -18 31 -18 224 l0 215 320 0 320 0 0 233 0 232 390 390 c215 214 390 393
390 397 0 5 -175 8 -390 8 l-390 0 0 185 0 185 -55 0 -55 0 0 485 0 485 580 0
579 0 1 -1770z m2830 818 l0 -951 -322 6 c-178 4 -430 7 -560 7 l-238 0 0 478
0 479 -657 7 c-362 4 -677 4 -700 0 -29 -4 -43 -3 -43 5 0 7 -23 11 -65 11
l-65 0 0 40 0 40 362 0 363 0 -363 363 -362 362 0 53 0 52 1325 0 1325 0 0
-952z m260 587 l0 -275 -100 0 -100 0 0 275 0 275 100 0 100 0 0 -275z m335
-17 l270 -273 -272 270 c-254 251 -278 275 -270 275 1 0 124 -123 272 -272z
m-3305 -63 l0 -325 -40 0 -40 0 0 325 0 325 40 0 40 0 0 -325z m3290 50 l245
-245 -248 0 -247 0 0 245 c0 135 1 245 3 245 1 0 112 -110 247 -245z m-2930
-90 l295 -295 -298 0 -297 0 0 295 c0 162 1 295 3 295 1 0 135 -133 297 -295z
m-3273 -2 c-3 -2 -47 -2 -98 -1 l-94 3 95 72 95 72 3 -71 c2 -39 1 -72 -1 -75z
m-9217 -658 l0 -675 -90 0 -90 0 0 675 0 675 90 0 90 0 0 -675z m9220 539 c0
-49 -3 -63 -12 -58 -15 8 -148 104 -162 116 -6 4 31 8 82 8 l92 0 0 -66z m218
-146 l-3 -213 -85 0 -85 0 -3 96 c-2 90 -1 97 18 102 26 7 26 33 0 47 -18 9
-20 21 -20 95 l0 85 90 0 90 0 -2 -212z m242 -3 l0 -216 -97 3 -98 3 -3 213
-2 212 100 0 100 0 0 -215z m210 0 l0 -215 -80 0 -80 0 0 215 0 215 80 0 80 0
0 -215z m228 3 l-3 -213 -90 0 -90 0 -3 213 -2 212 95 0 95 0 -2 -212z m222
-3 l0 -215 -90 0 -90 0 0 215 0 215 90 0 90 0 0 -215z m220 0 l0 -215 -85 0
-85 0 0 215 0 215 85 0 85 0 0 -215z m240 0 l0 -215 -95 0 -95 0 0 215 0 215
95 0 95 0 0 -215z m-1585 -91 l0 -119 -107 -3 -108 -3 0 201 0 200 108 -78
107 -79 0 -119z m7830 127 l1520 -7 -1702 -2 c-1566 -2 -1703 -1 -1703 14 0
15 18 16 183 9 100 -4 866 -10 1702 -14z m363 -163 l-2 -113 -3 107 -4 108
-292 3 -292 2 298 3 297 2 -2 -112z m-20 0 l-3 -93 -277 -3 -278 -2 0 95 0 95
280 0 281 0 -3 -92z m-65 -165 c-18 -2 -48 -2 -65 0 -18 2 -4 4 32 4 36 0 50
-2 33 -4z m1904 -2140 c-1 -395 -2 -72 -2 717 0 789 1 1112 2 718 2 -395 2
-1041 0 -1435z m-2667 2017 l0 -120 -232 -1 c-128 -1 -277 -4 -331 -8 l-99 -6
331 -337 331 -336 0 -956 0 -956 -700 0 -700 0 0 973 0 972 335 335 c223 223
330 337 322 342 -7 4 -157 8 -334 8 l-323 0 0 105 0 105 700 0 700 0 0 -120z
m750 107 c0 -1 -115 -117 -255 -257 l-255 -255 0 258 0 257 255 0 c140 0 255
-1 255 -3z m1900 -1412 l0 -1415 -1205 0 -1205 0 0 1102 0 1103 312 312 313
313 892 0 893 0 0 -1415z m-5940 1100 c146 -145 266 -271 268 -280 3 -13 -67
-15 -608 -15 l-610 0 0 45 0 45 115 0 115 0 0 220 0 220 -115 0 c-105 0 -127
5 -108 23 3 4 157 7 342 7 l336 0 265 -265z m270 40 c0 -124 -1 -225 -3 -225
-1 0 -103 101 -227 225 l-225 225 228 0 227 0 0 -225z m130 -25 l0 -250 -40 0
-40 0 0 243 c0 134 3 247 7 250 3 4 21 7 40 7 l33 0 0 -250z m-2930 -425 l0
-595 -1092 2 -1093 3 -3 593 -2 592 1095 0 1095 0 0 -595z m1750 430 l0 -165
-85 0 -85 0 0 158 c0 87 3 162 7 165 3 4 42 7 85 7 l78 0 0 -165z m-6940 10
l0 -115 -555 0 -555 0 0 104 c0 99 1 104 22 109 12 4 243 7 512 7 269 0 492 3
495 5 2 3 22 5 43 5 l38 0 0 -115z m1380 -175 l0 -270 -585 0 -585 0 0 270 0
270 585 0 585 0 0 -270z m8180 -75 l0 -295 -110 0 -110 0 0 288 c0 159 3 292
7 295 3 4 53 7 110 7 l103 0 0 -295z m580 272 c0 -1 -119 -121 -265 -267
l-265 -265 0 268 0 267 265 0 c146 0 265 -1 265 -3z m870 -292 c0 -146 -1
-265 -3 -265 -1 0 -121 119 -267 265 l-265 265 268 0 267 0 0 -265z m180 -25
l0 -290 -60 0 -60 0 0 290 0 290 60 0 60 0 0 -290z m-8410 -105 c0 -195 -1
-355 -3 -355 -1 0 -162 160 -357 355 l-355 355 358 0 357 0 0 -355z m180 -20
l0 -375 -65 0 -65 0 0 375 0 375 65 0 65 0 0 -375z m2410 17 c0 -417 3 -402
-86 -402 l-54 0 0 380 0 380 70 0 70 0 0 -358z m720 355 c0 -1 -153 -155 -340
-342 l-340 -340 0 343 0 342 340 0 c187 0 340 -1 340 -3z m-8980 -512 l0 -305
-40 0 -40 0 0 305 0 305 40 0 40 0 0 -305z m115 183 c41 -43 45 -49 13 -18
-48 45 -61 45 -71 5 -3 -11 -5 1 -6 28 0 26 0 47 2 47 1 0 29 -28 62 -62z
m2765 -433 l0 -495 754 0 c493 0 757 -3 761 -10 4 -7 -98 -10 -297 -11 -167
-1 -329 -4 -361 -8 l-58 -6 321 -343 c177 -188 325 -340 330 -337 8 5 90 -78
90 -92 0 -3 -16 12 -36 36 -20 23 -39 40 -41 37 -3 -3 11 -24 31 -47 23 -27
36 -53 36 -71 l0 -28 -1310 0 -1310 0 0 935 0 935 545 0 545 0 0 -495z m-1150
205 l0 -260 -110 0 -110 0 0 260 0 260 110 0 110 0 0 -260z m15080 -450 l0
-680 -90 0 -90 0 0 680 0 680 90 0 90 0 0 -680z m-16447 377 c75 -79 137 -147
137 -151 0 -3 -96 -5 -212 -4 -202 3 -213 4 -217 23 -2 10 0 112 4 225 l7 205
72 -77 c39 -42 133 -142 209 -221z m1077 63 l0 -230 -232 0 -233 0 230 230
c126 127 231 230 232 230 2 0 3 -103 3 -230z m9440 -55 l0 -285 -610 0 -610 0
0 285 0 285 610 0 610 0 0 -285z m-6590 139 c0 -12 -3 -14 -12 -6 -7 5 -24 12
-38 15 -18 3 -15 5 13 6 28 1 37 -3 37 -15z m-120 -12 c66 -6 85 -10 85 -22 0
-12 -20 -16 -107 -18 l-108 -3 0 -239 0 -240 104 0 c58 0 107 -4 110 -9 9 -14
-114 -21 -359 -21 l-230 0 -280 280 -280 280 490 -1 c270 -1 528 -4 575 -7z
m-1150 -292 l0 -270 -35 0 -35 0 0 270 0 270 35 0 35 0 0 -270z m1270 240 c0
-16 -6 -20 -32 -19 -25 1 -27 3 -10 6 13 3 26 11 29 19 7 20 13 17 13 -6z
m-798 -442 l60 -68 -236 0 -236 0 0 242 0 243 176 -175 c96 -96 203 -205 236
-242z m-3733 379 c-8 -7 -57 -53 -109 -102 l-95 -89 104 106 c58 59 107 105
110 102 3 -2 -2 -10 -10 -17z m58 -69 c-2 -18 -4 -6 -4 27 0 33 2 48 4 33 2
-15 2 -42 0 -60z m4463 -98 l0 -160 -85 0 -85 0 0 160 0 160 85 0 85 0 0 -160z
m-4533 -357 c-2 -2 -116 -2 -253 -1 l-248 3 249 238 250 239 3 -238 c1 -130 1
-239 -1 -241z m3718 257 c104 -104 188 -190 185 -190 -3 0 -91 86 -195 190
-104 105 -188 190 -185 190 3 0 91 -85 195 -190z m8715 75 l0 -105 -560 0
-560 0 0 105 0 105 560 0 560 0 0 -105z m-11748 -12 c-73 -2 -190 -2 -260 0
-70 1 -10 3 133 3 143 0 200 -2 127 -3z m-972 -17 c0 -2 -78 -77 -172 -166
l-173 -162 170 165 c167 164 175 171 175 163z m400 -177 c0 -132 -1 -139 -20
-139 -19 0 -20 7 -20 144 0 139 1 144 20 139 19 -5 20 -14 20 -144z m478 144
c-54 -2 -142 -2 -195 0 -54 1 -10 3 97 3 107 0 151 -2 98 -3z m3952 -143 c0
-5 -7 -7 -15 -4 -8 4 -15 8 -15 10 0 2 7 4 15 4 8 0 15 -4 15 -10z m0 -45 c0
-10 -10 -15 -27 -15 l-28 0 25 14 c14 8 26 14 28 15 1 1 2 -6 2 -14z m7900
-1370 l0 -1335 -640 0 c-352 0 -640 4 -640 8 0 5 286 7 635 4 l635 -5 0 1332
c0 732 2 1331 5 1331 3 0 5 -601 5 -1335z m-30 10 l0 -1315 -422 1 c-233 1
-561 4 -729 7 l-307 7 -336 333 c-185 182 -340 332 -345 332 -16 0 -21 -93
-21 -376 l0 -284 -160 0 -160 0 0 1305 0 1305 1240 0 1240 0 0 -1315z m-6150
1000 l0 -205 -100 0 -100 0 0 205 0 205 100 0 100 0 0 -205z m220 0 l0 -205
-90 0 -90 0 0 205 0 205 90 0 90 0 0 -205z m220 0 l0 -205 -90 0 -90 0 0 205
0 205 90 0 90 0 0 -205z m230 0 l0 -205 -90 0 -90 0 0 205 0 205 90 0 90 0 0
-205z m200 0 l0 -205 -80 0 -80 0 0 205 0 205 80 0 80 0 0 -205z m250 0 l0
-205 -100 0 -100 0 0 205 0 205 100 0 100 0 0 -205z m220 118 c0 -74 -3 -90
-21 -109 l-21 -22 21 -11 c19 -11 21 -21 21 -96 l0 -85 -85 0 -85 0 0 205 0
205 85 0 85 0 0 -87z m270 -109 c0 -156 -3 -194 -12 -187 -7 6 -59 44 -115 87
l-103 77 0 109 0 110 115 0 115 0 0 -196z m-7850 136 l0 -40 -290 0 -290 0 0
40 0 40 290 0 290 0 0 -40z m4598 -27 c-32 -2 -86 -2 -120 0 -35 2 -9 3 57 3
66 0 94 -1 63 -3z m42 -363 l0 -310 -103 107 c-57 60 -190 199 -296 311 l-193
202 296 0 296 0 0 -310z m140 -35 l0 -345 -40 0 -40 0 0 345 0 345 40 0 40 0
0 -345z m-3102 273 l-3 -23 -327 -5 c-179 -3 -330 -8 -334 -12 -4 -4 144 -160
330 -346 l336 -338 0 -1257 0 -1257 -1337 0 -1338 0 -372 372 -373 373 0 -373
0 -372 -310 0 -310 0 0 1630 0 1630 2021 0 2020 0 -3 -22z m-80 -45 c-54 -2
-142 -2 -195 0 -54 1 -10 3 97 3 107 0 151 -2 98 -3z m6121 -92 l75 -56 -74
-3 c-40 -2 -79 -1 -87 2 -9 4 -13 25 -13 66 0 70 -8 71 99 -9z m-6030 -98 c-1
-71 -4 -181 -8 -246 l-6 -117 -245 245 -245 245 253 0 252 0 -1 -127z m261
-148 l0 -275 -95 0 -95 0 0 275 0 275 95 0 95 0 0 -275z m4288 -102 l2 -243
-100 0 -100 0 0 245 0 246 98 -3 97 -3 3 -242z m220 0 l2 -243 -90 0 -90 0 0
245 0 246 88 -3 87 -3 3 -242z m222 2 l0 -245 -90 0 -90 0 0 245 0 245 90 0
90 0 0 -245z m230 0 l0 -245 -90 0 -90 0 0 245 0 245 90 0 90 0 0 -245z m200
0 l0 -245 -80 0 -80 0 0 245 0 245 80 0 80 0 0 -245z m250 0 l0 -245 -100 0
-100 0 0 245 0 245 100 0 100 0 0 -245z m220 146 c0 -91 -2 -100 -22 -115
l-23 -15 23 -20 c20 -18 22 -28 22 -130 l0 -111 -85 0 -85 0 0 245 0 245 85 0
85 0 0 -99z m260 95 c0 -5 -208 -156 -215 -156 -8 0 -6 146 2 153 7 7 213 10
213 3z m10 -271 l0 -215 -115 0 -115 0 0 134 0 134 112 81 c62 45 114 81 115
81 2 0 3 -97 3 -215z m-6215 -65 c33 -33 57 -60 54 -60 -2 0 -31 27 -64 60
-33 33 -57 60 -54 60 2 0 31 -27 64 -60z m3965 -265 l0 -65 -300 0 -300 0 0
65 0 65 300 0 300 0 0 -65z m3840 25 l0 -40 -330 0 -330 0 0 40 0 40 330 0
330 0 0 -40z m-6573 -21 c-3 -22 -7 -42 -9 -44 -1 -1 -146 -6 -320 -10 l-318
-7 0 51 0 51 326 0 327 0 -6 -41z m1583 -9 l0 -50 -235 0 -235 0 0 50 0 50
235 0 235 0 0 -50z m-1563 -32 c-2 -13 -4 -5 -4 17 -1 22 1 32 4 23 2 -10 2
-28 0 -40z m6224 -417 l374 -384 6 334 c3 184 7 358 8 387 l1 52 35 0 35 0 0
-795 0 -795 690 0 690 0 0 -1045 0 -1045 -25 0 -25 0 0 327 0 328 -328 -328
-327 -327 -198 0 -197 0 0 460 0 460 -585 0 -585 0 0 1373 c0 756 3 1377 7
1381 23 23 74 -23 424 -383z m329 72 l-1 -318 -304 310 c-167 171 -304 313
-305 318 0 4 137 7 305 7 l305 0 0 -317z m-4125 -26 l330 -304 3 304 2 304
153 -3 152 -3 0 -760 0 -760 -562 -3 -563 -2 0 765 0 765 78 0 78 0 329 -303z
m285 52 l0 -251 -37 33 c-76 66 -503 462 -503 465 0 2 122 4 270 4 l270 0 0
-251z m-1080 -35 c0 -181 -3 -273 -10 -269 -6 4 -10 107 -10 276 0 173 4 269
10 269 6 0 10 -99 10 -276z m-2368 -84 c2 -192 7 -353 11 -357 4 -4 169 154
365 350 l357 357 83 0 82 0 0 -815 0 -815 260 0 260 0 0 -325 0 -325 -775 0
-775 0 0 1140 0 1140 64 0 63 0 5 -350z m628 347 c0 -1 -126 -128 -280 -282
l-280 -280 0 283 0 282 280 0 c154 0 280 -1 280 -3z m790 -777 l0 -780 -225 0
-225 0 0 780 0 780 225 0 225 0 0 -780z m657 508 l273 -273 0 -207 0 -208
-345 0 -345 0 0 480 0 480 72 0 73 0 272 -272z m223 77 c0 -107 -3 -195 -8
-195 -4 0 -95 88 -202 195 l-195 195 203 0 202 0 0 -195z m2910 -205 l0 -320
-120 0 -120 0 0 215 c0 215 0 215 -22 219 -24 5 -784 86 -805 86 -9 0 -13 19
-13 60 l0 60 540 0 540 0 0 -320z m612 283 c15 -19 137 -150 270 -290 187
-196 244 -262 246 -284 l3 -29 -470 0 -471 0 0 320 0 320 198 0 197 -1 27 -36z
m509 -40 l2 -38 6 40 c3 22 6 -68 6 -200 0 -132 -1 -227 -3 -211 -2 18 -7 25
-11 17 -5 -8 -75 59 -207 198 -109 115 -200 215 -202 220 -3 8 62 11 202 11
l206 0 1 -37z m139 -208 l0 -245 -35 0 -35 0 0 245 0 245 35 0 35 0 0 -245z
m5410 80 l0 -105 -340 0 -340 0 0 105 0 105 340 0 340 0 0 -105z m-7356 -16
c210 -23 382 -42 383 -43 0 0 4 -85 8 -188 l8 -188 -397 0 -396 0 0 230 c0
127 3 230 7 230 4 0 178 -19 387 -41z m-464 -174 l0 -175 -100 0 -100 0 0 175
0 175 100 0 100 0 0 -175z m6460 -390 l0 -375 -100 0 -100 0 0 375 0 375 100
0 100 0 0 -375z m-7892 133 l-3 -153 -100 0 -100 0 -3 153 -3 152 106 0 106 0
-3 -152z m5479 -465 c-1 -81 -3 -17 -3 142 0 160 2 226 3 148 2 -78 2 -208 0
-290z m-3497 382 l0 -35 -240 0 -240 0 0 35 0 35 240 0 240 0 0 -35z m4070
-517 c0 -5 -117 -8 -260 -8 l-260 0 0 267 0 268 260 -260 c143 -143 260 -263
260 -267z m-4042 405 c-18 -15 -49 -40 -68 -57 -20 -17 -10 -5 21 27 31 31 62
57 69 57 6 0 -3 -12 -22 -27z m112 7 c0 -11 -2 -20 -4 -20 -2 0 -6 9 -9 20 -3
11 -1 20 4 20 5 0 9 -9 9 -20z m-190 7 c0 -1 -97 -99 -215 -217 l-215 -215 0
218 0 217 215 0 c118 0 215 -1 215 -3z m1780 -217 l0 -220 -765 0 -765 0 0
220 0 220 765 0 765 0 0 -220z m-1616 188 c3 -13 6 -125 6 -250 l0 -228 800 0
800 0 0 -128 0 -127 -385 -385 c-212 -212 -385 -388 -385 -392 0 -5 173 -8
385 -8 l385 0 0 -120 0 -120 -1100 0 -1100 0 0 629 0 628 225 222 c304 298
353 335 369 279z m-2374 -750 c0 -314 -3 -569 -6 -565 -3 3 -41 219 -83 479
l-76 473 -258 3 -257 2 0 90 0 90 340 0 340 0 0 -572z m278 405 l2 -163 -105
0 -105 0 0 165 0 166 103 -3 102 -3 3 -162z m-515 -93 c7 -7 149 -892 144
-896 -11 -11 -117 84 -339 304 l-248 245 0 179 0 179 219 -3 c121 -2 222 -5
224 -8z m6637 -55 l0 -35 -290 0 -290 0 0 35 0 35 290 0 290 0 0 -35z m1510
-260 l0 -175 -630 0 -630 0 0 175 0 175 630 0 630 0 0 -175z m-3809 25 c18 0
19 -12 19 -350 l0 -350 -36 0 -36 0 7 343 c4 188 9 345 11 349 2 3 1 8 -3 11
-5 2 -2 2 5 0 8 -1 22 -3 33 -3z m-2391 -375 l0 -365 -100 0 -100 0 0 365 0
365 100 0 100 0 0 -365z m2337 188 c-2 -32 -3 -8 -3 52 0 61 1 87 3 58 2 -29
2 -78 0 -110z m-9932 -143 l280 -280 -283 0 -282 0 0 280 c0 154 1 280 3 280
1 0 128 -126 282 -280z m5270 190 c38 -38 67 -70 64 -70 -2 0 -36 32 -74 70
-38 39 -67 70 -64 70 2 0 36 -31 74 -70z m-135 -190 l0 -240 -50 0 -50 0 0
240 0 240 50 0 50 0 0 -240z m4730 -80 l0 -290 -292 0 -293 0 290 290 c159
160 291 290 292 290 2 0 3 -130 3 -290z m-4290 -142 c0 -5 -83 -8 -185 -8
l-185 0 0 192 0 193 185 -185 c102 -102 185 -188 185 -192z m8220 117 l0 -45
-155 0 -155 0 0 -245 0 -245 155 0 155 0 0 -90 0 -90 -630 0 -630 0 0 77 0 78
268 270 267 270 -145 6 c-80 4 -200 7 -267 8 l-123 1 0 25 0 25 630 0 630 0 0
-45z m-8072 -148 c23 -20 36 -37 29 -37 -7 0 -55 44 -107 97 -56 58 -68 73
-30 37 36 -33 84 -77 108 -97z m-153 73 c33 -33 57 -60 54 -60 -2 0 -31 27
-64 60 -33 33 -57 60 -54 60 2 0 31 -27 64 -60z m6893 -227 l-3 -238 -27 -3
-28 -3 0 240 0 241 30 0 30 0 -2 -237z m334 104 c-67 -68 -120 -125 -118 -128
3 -3 -31 -41 -76 -85 -45 -43 -74 -69 -64 -56 11 12 14 22 8 22 -9 0 -12 52
-12 185 l0 185 192 0 193 0 -123 -123z m998 -92 l0 -185 -120 0 -120 0 0 185
0 185 120 0 120 0 0 -185z m-7893 113 c-3 -8 -6 -5 -6 6 -1 11 2 17 5 13 3 -3
4 -12 1 -19z m-5557 -158 l0 -90 -315 0 -315 0 0 90 0 90 315 0 315 0 0 -90z
m1340 0 l0 -90 -630 0 -630 0 0 83 c0 46 3 87 7 90 3 4 287 7 630 7 l623 0 0
-90z m3160 0 l0 -90 -345 0 -345 0 0 90 0 90 345 0 345 0 0 -90z m7637 -147
c-2 -32 -3 -6 -3 57 0 63 1 89 3 58 2 -32 2 -84 0 -115z m-2784 150 c-100 -2
-266 -2 -370 0 -103 1 -21 2 182 2 204 0 288 -1 188 -2z m-8616 -170 c-345 -2
-909 -2 -1255 0 -345 1 -62 2 628 2 690 0 973 -1 627 -2z m597 -155 c-4 -73
-9 -136 -13 -139 -3 -4 -433 -149 -956 -323 -882 -294 -951 -315 -963 -299
-18 25 -492 878 -492 887 0 3 547 6 1215 6 l1216 0 -7 -132z m12376 -193 l0
-315 -100 0 -100 0 0 299 c0 165 3 306 6 315 5 13 24 16 100 16 l94 0 0 -315z
m-12351 41 c-9 -8 -10 5 -5 53 3 35 7 91 8 125 1 34 4 10 5 -53 3 -78 0 -118
-8 -125z m9121 99 l0 -55 -310 0 -310 0 0 48 c0 27 3 52 7 55 3 4 143 7 310 7
l303 0 0 -55z m2977 -47 c-3 -7 -5 -2 -5 12 0 14 2 19 5 13 2 -7 2 -19 0 -25z
m-7 -393 l0 -365 -630 0 -630 0 0 365 0 365 630 0 630 0 0 -365z m-6133 -3037
c-1 -618 -2 -113 -2 1122 0 1235 1 1740 2 1123 2 -618 2 -1628 0 -2245z m3257
3354 c-6 -4 -16 -16 -22 -27 -11 -19 -11 -18 -12 8 0 21 5 27 23 27 12 0 17
-3 11 -8z m92 -192 l1 -195 -7 142 c-10 183 -17 230 -38 243 -14 8 -11 10 13
8 l30 -3 1 -195z m-716 83 l105 -108 -110 105 c-60 58 -112 106 -114 107 -2 2
0 3 5 3 5 0 57 -48 114 -107z m530 -164 l0 -271 -207 200 c-115 110 -239 232
-278 271 l-69 71 277 0 277 0 0 -271z m-297 -105 l372 -355 6 338 c3 186 9
346 13 356 5 9 14 17 21 17 7 0 16 -8 20 -17 16 -39 24 -809 24 -2570 l1
-1853 -962 0 -962 0 -394 392 c-358 356 -395 390 -405 373 -8 -14 -13 -135
-15 -392 l-4 -373 -279 0 -279 0 0 2220 0 2220 1235 0 1235 0 373 -356z m1692
206 c-10 -11 -13 -20 -7 -20 9 0 12 -66 12 -245 l0 -245 -252 0 -253 0 160
160 c88 88 155 160 150 160 -5 0 37 47 95 105 58 58 107 105 109 105 2 0 -4
-9 -14 -20z m12 -566 c-3 -3 -12 -4 -19 -1 -8 3 -5 6 6 6 11 1 17 -2 13 -5z
m2 -20 c5 -5 12 -28 16 -51 l7 -43 -291 0 -291 0 0 56 0 57 275 -5 c152 -2
279 -9 284 -14z m28 -31 c-3 -10 -5 -4 -5 12 0 17 2 24 5 18 2 -7 2 -21 0 -30z
m1541 -1905 c-2 -1379 -4 -1589 -8 -928 -6 961 -2 2710 5 2710 3 0 4 -802 3
-1782z m-28 917 l0 -845 -1260 0 -1260 0 0 845 0 845 1260 0 1260 0 0 -845z
m280 -845 l0 -720 -100 0 -100 0 0 720 0 720 100 0 100 0 0 -720z m-2438 -157
c-58 -3 -73 -7 -68 -18 4 -11 -22 -13 -152 -12 -140 2 -157 4 -160 20 -3 16
12 17 225 15 125 -1 195 -4 155 -5z m2158 -848 l0 -835 -1260 0 -1260 0 0 478
0 479 354 351 354 351 144 4 c78 1 486 4 906 5 l762 2 0 -835z m-2600 465 l0
-300 -55 0 -55 0 0 300 0 300 55 0 55 0 0 -300z m610 297 c0 -1 -121 -124
-270 -272 l-270 -270 0 273 0 272 270 0 c149 0 270 -1 270 -3z m-3230 -1132
c102 -102 183 -185 180 -185 -3 0 -88 83 -190 185 -102 102 -183 185 -180 185
3 0 88 -83 190 -185z m319 -388 c4 1 28 -19 52 -45 24 -26 39 -42 32 -37 -8 7
-112 7 -307 1 -162 -5 -301 -6 -310 -3 -14 6 -16 42 -16 308 l0 301 271 -264
c149 -145 274 -262 278 -261z m101 -247 l0 -100 -325 0 -325 0 0 93 c0 52 3
97 7 100 3 4 150 7 325 7 l318 0 0 -100z m1328 -2 l3 -98 -631 0 -630 0 0 100
0 100 628 -2 627 -3 3 -97z m-2 -310 c-3 -78 -7 -143 -9 -144 -6 -5 -1924
-637 -1936 -638 -8 -1 -105 162 -243 409 -126 226 -243 434 -259 463 l-29 52
1241 0 1242 0 -7 -142z"/>
<path d="M7475 16128 l-260 -263 263 260 c144 143 262 261 262 262 0 8 -24
-16 -265 -259z"/>
<path d="M9650 14630 c0 -57 3 -100 6 -97 7 7 5 189 -2 196 -2 2 -4 -42 -4
-99z"/>
<path d="M9809 14703 l-24 -28 28 24 c25 23 32 31 24 31 -2 0 -14 -12 -28 -27z"/>
<path d="M13863 13589 c-39 -11 -79 -57 -94 -109 -23 -75 28 -158 110 -180
143 -38 250 151 144 252 -48 45 -94 56 -160 37z m121 -80 c36 -43 35 -91 -3
-130 -22 -21 -39 -29 -66 -29 -27 0 -44 8 -66 29 -61 62 -19 161 69 161 33 0
45 -6 66 -31z"/>
<path d="M10271 13293 c-53 -26 -73 -67 -69 -141 4 -57 7 -66 40 -99 33 -32
44 -37 98 -41 51 -4 65 -1 94 19 48 33 66 68 66 131 0 59 -20 99 -66 129 -36
24 -116 25 -163 2z m145 -73 c48 -46 22 -132 -44 -145 -58 -13 -64 -13 -58 -8
3 3 -6 14 -19 25 -30 23 -42 77 -24 109 7 13 12 27 11 32 -1 4 1 6 6 6 18 -3
33 2 28 10 -11 18 76 -8 100 -29z"/>
<path d="M3048 11648 c-16 -5 -28 -16 -28 -23 0 -11 11 -13 50 -8 54 6 80 -6
80 -39 0 -10 -29 -50 -65 -88 -88 -93 -86 -100 20 -100 69 0 85 3 85 15 0 12
-14 15 -62 15 l-61 0 56 59 c79 82 87 135 27 166 -33 17 -63 18 -102 3z"/>
<path d="M2000 11490 c0 -82 3 -100 15 -100 12 0 15 14 15 63 0 72 18 107 56
107 15 0 24 6 24 15 0 17 -32 20 -61 5 -13 -7 -19 -7 -19 0 0 5 -7 10 -15 10
-12 0 -15 -18 -15 -100z"/>
<path d="M2149 11564 c-19 -20 -24 -37 -24 -74 0 -64 31 -100 87 -100 58 0 88
34 88 100 0 41 -5 56 -25 75 -34 35 -93 34 -126 -1z m101 -19 c7 -9 13 -33 13
-55 0 -22 -6 -46 -13 -55 -18 -22 -67 -19 -80 4 -15 29 -12 87 6 105 20 20 58
21 74 1z"/>
<path d="M2382 11583 c-19 -7 -42 -58 -42 -93 0 -37 23 -85 45 -94 9 -3 29 -6
45 -6 42 0 59 9 75 41 27 52 10 137 -30 153 -19 7 -74 7 -93 -1z m88 -42 c5
-11 10 -34 10 -51 0 -47 -16 -70 -50 -70 -34 0 -50 23 -50 70 0 47 16 70 50
70 19 0 33 -7 40 -19z"/>
<path d="M2570 11490 c0 -82 3 -100 15 -100 12 0 15 13 15 58 0 75 17 107 55
107 l30 0 5 -80 c4 -66 8 -80 23 -83 15 -3 17 5 17 67 0 73 13 101 49 101 32
0 41 -22 41 -97 0 -68 2 -73 21 -73 21 0 21 4 17 80 -3 58 -10 85 -23 100 -21
24 -62 26 -92 5 -18 -13 -22 -13 -33 0 -15 18 -71 20 -89 3 -11 -10 -14 -10
-18 0 -3 6 -11 12 -19 12 -11 0 -14 -20 -14 -100z"/>
<path d="M4540 12290 c0 -18 7 -20 70 -20 63 0 71 -2 86 -25 9 -14 14 -32 10
-40 -4 -10 1 -15 15 -15 19 0 20 4 15 33 -4 17 -6 44 -6 60 l0 27 -95 0 c-88
0 -95 -1 -95 -20z"/>
<path d="M4558 12150 c-26 -27 -30 -36 -25 -67 10 -57 37 -78 103 -78 49 0 59
4 80 28 33 39 31 81 -5 118 -24 24 -38 29 -76 29 -39 0 -52 -5 -77 -30z m134
-27 c24 -22 23 -49 -4 -67 -31 -22 -84 -20 -108 4 -24 24 -24 29 -4 58 19 27
88 31 116 5z"/>
<path d="M4562 11940 c-78 -73 6 -185 112 -150 59 19 82 71 54 123 -19 36 -40
46 -94 47 -37 0 -56 -5 -72 -20z m135 -37 c18 -24 16 -40 -7 -63 -49 -49 -159
2 -122 56 24 36 105 41 129 7z"/>
<path d="M4540 11715 c0 -12 14 -15 65 -15 52 0 69 -4 85 -20 45 -45 18 -70
-77 -70 -66 0 -73 -2 -73 -20 0 -18 7 -20 69 -20 71 0 101 -14 101 -45 0 -31
-30 -45 -101 -45 -55 0 -69 -3 -69 -15 0 -12 16 -15 80 -15 67 0 83 3 100 20
24 24 26 57 5 87 -13 19 -13 25 3 52 16 29 16 33 0 61 -9 17 -13 30 -8 30 6 0
10 7 10 15 0 12 -17 15 -95 15 -78 0 -95 -3 -95 -15z"/>
<path d="M4535 11235 c-5 -33 -2 -53 11 -82 17 -34 23 -38 61 -41 33 -2 45 1
54 17 13 19 13 19 37 0 31 -24 43 -24 76 2 24 19 27 27 24 77 -2 43 -7 58 -19
60 -14 2 -15 -5 -12 -45 4 -36 1 -52 -10 -62 -27 -22 -51 -9 -61 32 -11 45
-36 50 -36 8 0 -56 -73 -77 -86 -24 -4 13 -4 42 -1 64 4 33 2 39 -13 39 -14 0
-20 -10 -25 -45z"/>
<path d="M9830 10750 l0 -530 468 2 467 3 0 525 0 525 -467 3 -468 2 0 -530z
m838 475 c2 -2 -316 -373 -362 -423 -10 -10 -52 33 -202 204 -104 119 -190
220 -192 225 -3 7 747 1 756 -6z m50 -690 l-3 -225 -193 220 c-106 122 -192
225 -190 230 2 4 89 107 193 227 l190 218 3 -222 c1 -123 1 -324 0 -448z
m-635 429 c98 -111 177 -205 177 -208 0 -6 -313 -370 -361 -421 -19 -19 -19
-11 -19 420 0 368 2 437 13 425 8 -8 93 -106 190 -216z m417 -475 l187 -214
-385 -3 c-212 -1 -387 0 -389 2 -3 3 82 104 188 225 116 133 196 218 202 212
5 -5 93 -105 197 -222z"/>
<path d="M10902 10753 l3 -528 468 -3 467 -2 -2 527 -3 528 -468 3 -467 2 2
-527z m836 471 c3 -2 -298 -353 -357 -417 -16 -17 -28 -5 -209 202 -106 121
-192 222 -192 225 0 5 752 -4 758 -10z m50 -688 l-3 -225 -193 220 c-106 121
-192 224 -190 229 2 4 89 106 193 226 l190 219 3 -222 c1 -122 1 -323 0 -447z
m-630 422 c94 -108 172 -199 172 -203 0 -6 -301 -356 -356 -415 l-24 -25 0
440 c1 417 2 439 18 420 9 -12 95 -109 190 -217z m415 -473 l184 -210 -385 -3
c-212 -1 -387 0 -389 2 -3 2 82 104 188 225 156 179 195 219 205 209 7 -7 96
-107 197 -223z"/>
<path d="M7337 9485 c-32 -47 -57 -92 -57 -100 0 -12 13 -15 60 -15 l60 0 0
-30 c0 -23 4 -30 20 -30 16 0 20 7 20 30 0 20 5 30 15 30 8 0 15 7 15 15 0 8
-7 15 -15 15 -12 0 -15 16 -15 85 0 83 -1 85 -23 85 -19 0 -36 -18 -80 -85z
m63 -20 l0 -65 -41 0 c-22 0 -39 3 -37 8 5 13 73 121 76 122 1 0 2 -29 2 -65z"/>
<path d="M6322 9494 c-12 -8 -22 -10 -22 -5 0 6 -9 11 -20 11 -19 0 -20 -7
-20 -95 0 -88 1 -95 20 -95 18 0 20 7 20 63 0 72 14 100 53 100 20 0 27 5 27
18 0 23 -27 25 -58 3z"/>
<path d="M6424 9487 c-20 -18 -28 -35 -32 -75 -4 -47 -2 -54 26 -82 41 -40 83
-41 123 -1 24 24 29 38 29 76 0 88 -84 135 -146 82z m84 -23 c42 -29 22 -134
-26 -134 -51 0 -74 103 -30 134 12 9 25 16 28 16 3 0 16 -7 28 -16z"/>
<path d="M6639 9481 c-24 -24 -29 -38 -29 -76 0 -126 160 -143 177 -19 13 101
-81 161 -148 95z m91 -21 c38 -38 14 -130 -34 -130 -47 0 -66 91 -29 133 21
22 38 22 63 -3z"/>
<path d="M6892 9494 c-12 -8 -22 -10 -22 -5 0 6 -7 11 -15 11 -12 0 -15 -17
-15 -95 0 -78 3 -95 15 -95 12 0 15 14 15 65 0 52 4 69 20 85 45 45 70 18 70
-77 0 -66 2 -73 20 -73 18 0 20 7 20 69 0 61 3 72 22 85 28 20 33 20 52 0 12
-11 16 -35 16 -85 0 -55 3 -69 15 -69 12 0 15 16 15 80 0 67 -3 83 -20 100
-11 11 -27 20 -35 20 -21 0 -65 -22 -65 -32 0 -5 -12 0 -26 11 -32 25 -52 26
-82 5z"/>
<path d="M3733 8283 c-38 -7 -28 -33 12 -33 l35 0 0 -95 0 -95 -30 0 c-20 0
-30 -5 -30 -15 0 -12 15 -15 75 -15 60 0 75 3 75 15 0 10 -10 15 -30 15 l-30
0 0 115 0 115 -27 -1 c-16 -1 -38 -4 -50 -6z"/>
<path d="M2677 8223 c-4 -3 -7 -48 -7 -100 0 -86 1 -93 20 -93 18 0 20 7 20
68 0 75 16 102 58 102 13 0 22 6 22 15 0 17 -32 20 -60 5 -13 -7 -21 -7 -25 0
-7 12 -19 13 -28 3z"/>
<path d="M2828 8200 c-28 -28 -30 -35 -26 -81 7 -66 33 -94 89 -94 56 0 89 38
89 101 0 37 -6 51 -29 75 -40 40 -82 39 -123 -1z m94 -17 c12 -11 18 -30 18
-59 0 -35 -5 -47 -25 -60 -23 -15 -27 -15 -50 0 -20 13 -25 25 -25 58 0 66 42
98 82 61z"/>
<path d="M3045 8204 c-51 -55 -24 -164 44 -179 66 -14 121 53 107 130 -14 71
-104 100 -151 49z m99 -26 c19 -27 21 -78 4 -100 -46 -56 -114 8 -86 81 17 46
57 55 82 19z"/>
<path d="M3250 8130 c0 -82 3 -100 15 -100 12 0 15 14 15 63 0 67 18 107 49
107 32 0 41 -22 41 -97 0 -66 2 -73 20 -73 18 0 20 7 20 69 0 74 14 101 50
101 28 0 40 -31 40 -104 0 -52 3 -66 15 -66 22 0 21 147 -1 178 -18 26 -59 29
-92 6 -21 -15 -25 -15 -41 0 -23 21 -60 20 -83 -1 -17 -15 -18 -15 -18 0 0 10
-7 17 -15 17 -12 0 -15 -18 -15 -100z"/>
<path d="M6210 8075 c0 -12 13 -15 58 -15 76 0 106 -16 110 -58 2 -20 9 -32
18 -32 17 0 19 42 4 71 -7 13 -7 19 0 19 5 0 10 7 10 15 0 12 -18 15 -100 15
-82 0 -100 -3 -100 -15z"/>
<path d="M6235 7935 c-35 -34 -34 -93 1 -126 20 -19 37 -24 74 -24 64 0 100
31 100 87 0 58 -34 88 -100 88 -41 0 -56 -5 -75 -25z m132 -26 c20 -17 16 -56
-9 -73 -48 -34 -122 -7 -116 42 5 46 83 65 125 31z"/>
<path d="M6255 7738 c-33 -17 -45 -40 -45 -80 0 -58 34 -88 100 -88 41 0 56 5
75 25 25 24 33 73 19 110 -15 37 -104 58 -149 33z m109 -44 c22 -21 20 -61 -3
-74 -11 -5 -34 -10 -51 -10 -17 0 -40 5 -51 10 -25 14 -26 65 -1 79 26 16 89
13 106 -5z"/>
<path d="M6212 7503 c3 -15 16 -19 73 -21 76 -3 95 -13 95 -48 0 -31 -32 -44
-111 -44 -46 0 -59 -3 -59 -15 0 -12 14 -15 63 -15 71 0 107 -18 107 -54 0
-30 -16 -36 -101 -36 -62 0 -69 -2 -69 -20 0 -18 7 -20 71 -20 68 0 106 11
121 34 13 18 9 60 -7 83 -13 18 -13 22 0 33 17 14 20 76 4 86 -8 4 -8 9 0 17
30 30 12 37 -90 37 -90 0 -100 -2 -97 -17z"/>
<path d="M6217 7053 c-4 -3 -7 -30 -7 -58 0 -41 5 -56 23 -72 32 -30 61 -36
101 -19 26 11 37 23 45 51 5 20 7 43 4 51 -4 10 3 14 26 14 31 0 31 0 31 -55
0 -42 3 -55 15 -55 12 0 15 14 15 70 l0 70 -62 0 -63 0 0 -47 c0 -40 -4 -49
-26 -62 -24 -13 -29 -13 -54 3 -25 16 -27 22 -23 67 5 46 -5 63 -25 42z"/>
<path d="M7770 8158 c-64 -33 -85 -67 -85 -138 0 -44 5 -66 21 -86 53 -72 128
-91 204 -52 116 59 114 221 -4 277 -54 27 -81 26 -136 -1z m131 -77 c20 -20
29 -39 29 -61 0 -45 -47 -90 -95 -90 -51 0 -85 36 -85 90 0 85 90 121 151 61z"/>
<path d="M11353 8474 c-98 -49 -102 -210 -6 -266 53 -30 131 -27 173 8 86 73
82 190 -10 251 -40 28 -109 30 -157 7z m138 -73 c37 -37 40 -90 7 -121 -12
-11 -26 -20 -30 -20 -5 0 -7 -3 -5 -7 3 -5 -11 -8 -31 -8 -81 0 -124 104 -67
160 35 36 88 34 126 -4z"/>
<path d="M14905 6248 l-60 -63 63 60 c58 55 67 65 59 65 -1 0 -29 -28 -62 -62z"/>
<path d="M14410 5523 l-85 -88 88 85 c48 46 87 86 87 87 0 8 -11 -3 -90 -84z"/>
<path d="M11170 1407 c0 -2 15 -16 33 -33 l32 -29 -29 33 c-28 30 -36 37 -36
29z"/>
<path d="M2535 3228 c-10 -58 -11 -59 -43 -41 -24 14 -32 14 -57 2 -38 -18
-75 -74 -75 -113 0 -64 58 -103 106 -71 14 9 24 11 24 5 0 -7 14 -10 32 -8
l33 3 22 115 c29 152 29 150 -6 150 -27 0 -30 -4 -36 -42z m-27 -111 c7 -56
-53 -103 -76 -61 -20 35 16 97 52 92 15 -2 22 -12 24 -31z"/>
<path d="M1186 3243 c-2 -10 -12 -58 -21 -108 -9 -49 -19 -100 -22 -113 -5
-23 -5 -23 88 -20 89 3 94 4 97 26 3 21 0 22 -52 22 -64 0 -63 -2 -41 100 22
99 20 110 -14 110 -20 0 -31 -6 -35 -17z"/>
<path d="M1450 3187 c-61 -21 -98 -105 -70 -157 13 -25 72 -43 113 -35 59 12
67 16 67 36 0 16 -5 18 -27 13 -61 -16 -102 -4 -103 29 0 4 34 7 75 7 l75 0 0
38 c0 64 -58 95 -130 69z m70 -52 c0 -10 -11 -15 -35 -15 -33 0 -43 8 -28 23
13 14 63 7 63 -8z"/>
<path d="M1681 3187 c-33 -17 -60 -56 -67 -97 -11 -65 50 -110 107 -80 30 16
25 -16 -6 -36 -24 -16 -49 -15 -87 1 -15 6 -18 2 -18 -19 0 -31 30 -41 92 -33
68 9 94 44 118 161 11 54 20 100 20 102 0 9 -59 3 -65 -6 -4 -7 -14 -5 -28 5
-26 18 -35 18 -66 2z m77 -60 c9 -48 -26 -95 -62 -81 -21 8 -21 62 1 86 21 23
57 20 61 -5z"/>
<path d="M1953 3189 c-48 -14 -83 -62 -83 -113 0 -66 42 -93 125 -80 30 4 49
13 56 26 15 28 7 31 -40 18 -45 -12 -81 -1 -81 25 0 12 16 15 75 15 l75 0 0
31 c0 43 -15 65 -51 78 -36 12 -33 12 -76 0z m65 -56 c2 -9 -9 -13 -38 -13
-37 0 -41 2 -30 16 15 17 61 15 68 -3z"/>
<path d="M2233 3185 c-18 -8 -33 -10 -33 -5 0 6 -13 10 -29 10 -28 0 -29 -2
-45 -82 -21 -108 -21 -108 13 -108 27 0 29 3 40 59 12 62 39 98 67 87 13 -5
15 -15 9 -54 -3 -26 -9 -57 -12 -69 -4 -20 -1 -23 26 -23 33 0 33 0 50 94 9
50 0 96 -18 96 -5 0 -15 2 -23 5 -7 2 -28 -2 -45 -10z"/>
<path d="M2650 3165 c0 -14 0 -28 0 -32 0 -5 12 -8 27 -8 23 0 28 5 34 33 6
31 5 32 -27 32 -30 0 -34 -3 -34 -25z"/>
<path d="M2626 3044 c-12 -32 -6 -44 23 -44 27 0 40 18 41 53 0 14 -58 7 -64
-9z"/>
<path d="M5597 2773 c-19 -18 -6 -32 23 -26 l31 6 -3 -99 -3 -99 -28 -3 c-16
-2 -27 -8 -24 -15 2 -7 32 -13 75 -15 58 -2 72 0 72 12 0 9 -11 16 -27 18
l-28 3 -3 113 -3 112 -38 0 c-21 0 -41 -3 -44 -7z"/>
<path d="M4400 2745 c0 -16 -6 -25 -15 -25 -8 0 -15 -5 -15 -10 0 -6 7 -13 15
-16 11 -5 15 -23 15 -74 0 -74 6 -84 58 -93 24 -5 32 -3 32 8 0 8 -12 15 -27
17 -27 3 -28 5 -31 71 l-3 67 31 0 c20 0 30 5 30 15 0 10 -10 15 -30 15 -25 0
-30 4 -30 25 0 16 -6 25 -15 25 -9 0 -15 -9 -15 -25z"/>
<path d="M5330 2745 c0 -16 -6 -25 -15 -25 -8 0 -15 -5 -15 -10 0 -6 7 -13 15
-16 11 -5 15 -23 15 -74 0 -42 5 -71 13 -78 18 -15 79 -19 84 -5 3 7 -9 13
-29 15 l-33 3 -3 67 -3 67 32 3 c46 4 50 28 5 28 -32 0 -36 3 -36 25 0 16 -6
25 -15 25 -9 0 -15 -9 -15 -25z"/>
<path d="M2150 2620 l0 -130 445 0 445 0 0 130 0 130 -445 0 -445 0 0 -130z
m860 0 l0 -110 -420 0 -420 0 0 103 c0 57 3 107 7 110 3 4 192 7 420 7 l413 0
0 -110z"/>
<path d="M3603 2713 c-7 -2 -13 -11 -13 -18 0 -11 8 -11 36 -4 28 8 41 7 60
-6 32 -21 30 -35 -5 -35 -36 0 -83 -17 -93 -33 -14 -22 -8 -64 10 -80 23 -21
61 -22 90 -1 20 14 22 14 22 0 0 -9 7 -16 15 -16 12 0 15 16 15 80 0 98 -16
120 -82 119 -24 0 -49 -3 -55 -6z m107 -106 c0 -7 -7 -23 -16 -35 -12 -17 -24
-22 -47 -20 -35 3 -47 29 -27 53 16 19 90 20 90 2z"/>
<path d="M3810 2585 c0 -113 2 -135 15 -135 11 0 15 12 15 45 0 42 2 45 19 35
35 -18 68 -11 95 21 32 38 34 90 6 137 -17 27 -26 32 -58 32 -21 0 -43 -5 -50
-12 -9 -9 -12 -9 -12 0 0 7 -7 12 -15 12 -13 0 -15 -22 -15 -135z m111 96 c18
-15 23 -28 23 -60 -1 -22 -7 -48 -14 -56 -16 -20 -54 -19 -74 1 -23 23 -21 89
4 114 25 25 32 25 61 1z"/>
<path d="M4043 2713 c-28 -11 -12 -25 23 -20 41 7 84 -7 84 -26 0 -10 -16 -16
-47 -20 -74 -8 -107 -63 -63 -107 22 -22 69 -27 88 -8 9 9 15 9 24 0 23 -23
28 -11 28 71 0 101 -12 117 -81 116 -24 0 -50 -3 -56 -6z m107 -112 c0 -46
-69 -68 -93 -29 -17 26 9 48 54 48 32 0 39 -4 39 -19z"/>
<path d="M4250 2620 c0 -82 3 -100 15 -100 12 0 15 13 15 58 0 31 3 67 6 79 6
22 37 39 62 35 6 -2 12 4 12 13 0 17 -32 20 -61 5 -13 -7 -19 -7 -19 0 0 5 -7
10 -15 10 -12 0 -15 -18 -15 -100z"/>
<path d="M4540 2619 c0 -76 3 -100 13 -97 8 3 13 30 15 76 2 63 6 74 26 87 47
31 64 7 68 -99 4 -79 28 -91 28 -13 0 101 37 150 81 106 15 -15 19 -33 19 -90
0 -52 3 -70 13 -67 19 7 22 144 2 174 -19 29 -69 33 -97 7 -17 -15 -19 -15
-36 0 -22 20 -73 22 -90 5 -9 -9 -12 -9 -12 0 0 7 -7 12 -15 12 -12 0 -15 -18
-15 -101z"/>
<path d="M4909 2707 c-67 -51 -44 -168 36 -183 43 -8 95 4 95 21 0 10 -9 12
-34 8 -50 -8 -81 3 -94 32 l-12 25 77 0 76 0 -6 36 c-9 53 -32 74 -81 74 -23
0 -48 -6 -57 -13z m91 -27 c32 -32 24 -40 -35 -40 -61 0 -73 16 -33 44 30 21
44 20 68 -4z"/>
<path d="M5102 2623 c2 -66 7 -98 16 -101 9 -3 12 14 12 63 0 57 3 69 25 90
27 27 33 29 55 15 10 -6 17 -33 20 -86 3 -49 10 -79 18 -82 9 -3 12 18 12 81
0 69 -3 87 -18 100 -22 20 -72 22 -91 5 -11 -10 -14 -10 -18 0 -3 6 -11 12
-19 12 -12 0 -14 -17 -12 -97z"/>
<path d="M3330 2625 c0 -11 12 -15 45 -15 33 0 45 4 45 15 0 11 -12 15 -45 15
-33 0 -45 -4 -45 -15z"/>
<path d="M5593 2293 c-7 -2 -13 -11 -13 -19 0 -10 10 -12 45 -7 29 4 50 1 60
-7 29 -24 16 -56 -50 -128 -36 -38 -65 -75 -65 -81 0 -7 30 -11 85 -11 69 0
85 3 85 15 0 12 -14 15 -62 15 l-62 0 51 53 c29 28 57 64 62 80 13 33 0 71
-28 86 -20 11 -86 14 -108 4z"/>
<path d="M4400 2265 c0 -14 -7 -28 -15 -31 -8 -4 -15 -10 -15 -15 0 -5 7 -9
15 -9 12 0 15 -15 15 -75 0 -81 10 -95 64 -95 36 0 34 28 -1 32 -27 3 -28 5
-31 71 l-3 67 31 0 c16 0 30 5 30 10 0 6 -13 10 -30 10 -27 0 -30 3 -30 30 0
20 -5 30 -15 30 -9 0 -15 -9 -15 -25z"/>
<path d="M5330 2265 c0 -14 -7 -28 -15 -31 -8 -4 -15 -10 -15 -15 0 -5 7 -9
15 -9 12 0 15 -14 15 -69 0 -81 13 -101 67 -101 42 0 41 23 -3 30 -28 5 -29 7
-32 73 l-3 67 36 0 c19 0 35 5 35 10 0 6 -16 10 -35 10 -32 0 -35 2 -35 30 0
20 -5 30 -15 30 -9 0 -15 -9 -15 -25z"/>
<path d="M2150 2135 l0 -135 443 2 442 3 3 133 3 132 -446 0 -445 0 0 -135z
m860 0 l0 -105 -420 0 -420 0 0 105 0 105 420 0 420 0 0 -105z"/>
<path d="M3608 2233 c-10 -2 -18 -10 -18 -18 0 -9 12 -11 43 -8 32 4 48 1 60
-12 27 -26 20 -35 -26 -35 -23 0 -53 -7 -65 -16 -26 -18 -30 -65 -6 -88 18
-18 66 -21 95 -6 13 7 19 7 19 0 0 -5 7 -10 15 -10 12 0 15 15 15 75 0 67 -3
79 -25 100 -23 24 -61 30 -107 18z m102 -113 c0 -43 -60 -76 -88 -48 -32 32
-3 67 56 68 25 0 32 -4 32 -20z"/>
<path d="M3857 2223 c-11 -11 -17 -13 -17 -5 0 7 -7 12 -15 12 -13 0 -15 -21
-15 -130 0 -109 2 -130 15 -130 11 0 15 12 15 47 0 37 3 44 12 35 7 -7 28 -12
48 -12 53 0 75 28 75 97 0 48 -4 58 -28 79 -33 28 -66 31 -90 7z m73 -28 c20
-24 17 -90 -4 -114 -24 -26 -41 -26 -66 -1 -25 25 -27 86 -3 112 20 22 56 23
73 3z"/>
<path d="M4053 2230 c-40 -16 -26 -30 22 -23 47 6 75 -6 75 -33 0 -10 -13 -14
-45 -14 -73 0 -113 -62 -67 -103 22 -20 83 -22 100 -5 9 9 12 9 12 0 0 -7 7
-12 15 -12 12 0 15 15 15 78 0 42 -4 82 -8 88 -20 31 -75 41 -119 24z m97
-110 c0 -23 -33 -60 -54 -60 -15 0 -46 26 -46 38 1 24 29 40 73 41 21 1 27 -4
27 -19z"/>
<path d="M4302 2224 c-12 -8 -22 -10 -22 -5 0 6 -7 11 -15 11 -12 0 -15 -17
-15 -95 0 -78 3 -95 15 -95 12 0 15 14 15 63 0 72 18 107 56 107 15 0 24 6 24
15 0 19 -30 19 -58 -1z"/>
<path d="M4592 2224 c-12 -8 -22 -10 -22 -5 0 6 -7 11 -15 11 -12 0 -15 -17
-15 -95 0 -78 3 -95 15 -95 12 0 15 14 15 69 0 73 14 101 49 101 32 0 41 -22
41 -97 0 -58 3 -73 15 -73 12 0 15 13 15 58 0 69 17 106 50 110 36 6 50 -22
50 -100 0 -54 3 -68 15 -68 12 0 15 15 15 74 0 59 -4 78 -21 100 -24 31 -57
34 -89 8 -23 -18 -24 -18 -42 0 -22 22 -46 23 -76 2z"/>
<path d="M4920 2227 c-63 -32 -67 -144 -6 -177 32 -17 120 -9 124 11 3 14 -2
15 -37 6 -32 -9 -44 -8 -64 6 -13 8 -27 25 -30 36 -5 20 -1 21 69 21 67 0 74
2 74 20 0 69 -67 109 -130 77z m84 -39 c21 -30 12 -38 -45 -38 -42 0 -49 3
-49 20 0 40 69 54 94 18z"/>
<path d="M5152 2224 c-12 -8 -22 -10 -22 -5 0 6 -7 11 -15 11 -12 0 -15 -17
-15 -95 0 -78 3 -95 15 -95 12 0 15 13 15 58 0 68 17 106 48 110 41 6 52 -14
52 -94 0 -59 3 -74 15 -74 12 0 15 16 15 80 0 67 -3 83 -20 100 -24 24 -57 26
-88 4z"/>
<path d="M3330 2135 c0 -11 12 -15 45 -15 33 0 45 4 45 15 0 11 -12 15 -45 15
-33 0 -45 -4 -45 -15z"/>
<path d="M5593 1813 c-7 -2 -13 -10 -13 -17 0 -8 18 -12 51 -11 38 0 54 -4 63
-17 16 -26 -4 -52 -43 -56 -41 -4 -43 -32 -2 -32 58 0 81 -56 37 -85 -19 -12
-36 -15 -72 -9 -37 5 -46 4 -42 -7 3 -8 23 -18 45 -23 33 -7 49 -5 80 10 34
17 38 23 41 61 2 32 -1 44 -17 56 -21 14 -21 14 -1 32 27 24 25 51 -5 80 -18
19 -34 25 -67 24 -24 0 -49 -3 -55 -6z"/>
<path d="M4400 1780 c0 -20 -5 -30 -15 -30 -8 0 -15 -4 -15 -9 0 -5 7 -11 15
-15 11 -4 15 -22 15 -74 0 -77 9 -92 57 -92 41 0 43 16 3 25 -30 7 -30 7 -30
76 l0 69 30 0 c17 0 30 5 30 10 0 6 -13 10 -30 10 -27 0 -30 3 -30 30 0 20 -5
30 -15 30 -10 0 -15 -10 -15 -30z"/>
<path d="M5330 1780 c0 -20 -5 -30 -15 -30 -8 0 -15 -4 -15 -10 0 -5 7 -10 15
-10 12 0 15 -15 15 -73 0 -84 8 -97 62 -97 48 0 50 16 3 24 l-35 7 0 69 0 70
35 0 c19 0 35 5 35 10 0 6 -16 10 -35 10 -32 0 -35 2 -35 30 0 20 -5 30 -15
30 -10 0 -15 -10 -15 -30z"/>
<path d="M2150 1655 l0 -135 445 0 446 0 -3 133 -3 132 -442 3 -443 2 0 -135z
m860 0 l0 -105 -420 0 -420 0 0 105 0 105 420 0 420 0 0 -105z"/>
<path d="M3621 1752 c-45 -14 -37 -32 11 -26 34 5 48 2 61 -11 27 -26 20 -35
-26 -35 -57 0 -87 -22 -87 -64 0 -53 49 -78 100 -52 17 8 30 10 30 5 0 -5 7
-9 15 -9 23 0 21 140 -2 169 -20 23 -65 33 -102 23z m85 -107 c9 -23 -23 -65
-50 -65 -53 0 -62 60 -11 71 48 11 55 10 61 -6z"/>
<path d="M3868 1746 c-16 -8 -28 -11 -28 -5 0 5 -7 9 -15 9 -13 0 -15 -22 -15
-135 0 -113 2 -135 15 -135 11 0 15 12 15 50 l0 49 30 -17 c27 -15 32 -16 57
-2 39 22 55 57 49 110 -3 32 -11 51 -31 67 -31 27 -40 28 -77 9z m49 -24 c6
-4 17 -20 23 -36 26 -69 -40 -138 -82 -86 -46 56 3 158 59 122z"/>
<path d="M4066 1752 c-48 -11 -46 -34 2 -26 43 7 82 -8 82 -31 0 -11 -11 -15
-39 -15 -45 0 -91 -31 -91 -61 0 -55 59 -85 105 -55 14 9 25 12 25 6 0 -5 7
-10 15 -10 24 0 21 151 -2 173 -23 20 -60 27 -97 19z m84 -114 c0 -48 -62 -77
-91 -42 -24 29 10 56 79 63 6 0 12 -9 12 -21z"/>
<path d="M4308 1746 c-16 -8 -28 -11 -28 -5 0 5 -7 9 -15 9 -12 0 -15 -17 -15
-95 0 -78 3 -95 15 -95 12 0 15 14 15 65 0 70 20 105 60 105 11 0 20 7 20 15
0 19 -17 19 -52 1z"/>
<path d="M4598 1745 c-16 -7 -28 -10 -28 -4 0 5 -7 9 -15 9 -12 0 -15 -17 -15
-95 0 -78 3 -95 15 -95 12 0 15 14 15 68 0 71 16 102 51 102 30 0 39 -24 39
-97 0 -56 3 -73 14 -73 10 0 15 19 18 71 3 55 8 74 23 85 48 35 75 4 75 -87 0
-55 3 -69 15 -69 12 0 15 15 15 71 0 79 -10 106 -46 119 -26 10 -61 -1 -76
-24 -5 -7 -11 -6 -20 6 -19 24 -50 29 -80 13z"/>
<path d="M4925 1746 c-17 -7 -36 -25 -43 -40 -40 -87 24 -171 114 -150 57 14
57 35 0 28 -51 -7 -86 12 -86 48 0 16 9 18 70 18 68 0 70 1 70 24 0 31 -37 74
-70 80 -14 3 -39 0 -55 -8z m79 -38 c24 -34 20 -38 -39 -38 -59 0 -70 13 -39
44 22 23 60 20 78 -6z"/>
<path d="M5158 1744 c-16 -8 -28 -10 -28 -4 0 5 -7 10 -15 10 -12 0 -15 -17
-15 -95 0 -78 3 -95 15 -95 11 0 15 13 15 54 0 71 13 104 45 112 43 11 55 -10
55 -92 0 -59 3 -74 15 -74 12 0 15 15 15 78 0 83 -4 93 -37 111 -27 14 -32 14
-65 -5z"/>
<path d="M3330 1655 c0 -11 12 -15 45 -15 33 0 45 4 45 15 0 11 -12 15 -45 15
-33 0 -45 -4 -45 -15z"/>
<path d="M5617 1252 c-31 -49 -57 -94 -57 -101 0 -7 22 -11 60 -11 l60 0 0
-30 c0 -23 4 -30 20 -30 16 0 20 7 20 30 0 20 5 30 15 30 8 0 15 7 15 15 0 8
-7 15 -15 15 -11 0 -15 18 -17 83 -3 74 -5 82 -23 85 -16 2 -33 -17 -78 -86z
m63 -17 l0 -65 -41 0 c-22 0 -39 3 -37 8 5 13 73 121 76 122 1 0 2 -29 2 -65z"/>
<path d="M4400 1300 c0 -20 -5 -30 -15 -30 -8 0 -15 -4 -15 -9 0 -5 7 -11 15
-15 11 -4 15 -22 15 -74 0 -77 9 -92 57 -92 41 0 43 16 3 25 -30 7 -30 7 -30
76 l0 69 30 0 c17 0 30 5 30 10 0 6 -13 10 -30 10 -27 0 -30 3 -30 30 0 20 -5
30 -15 30 -10 0 -15 -10 -15 -30z"/>
<path d="M5330 1300 c0 -20 -5 -30 -15 -30 -8 0 -15 -4 -15 -10 0 -5 7 -10 15
-10 12 0 15 -15 15 -73 0 -84 8 -97 62 -97 48 0 50 16 3 24 l-35 7 0 69 0 70
35 0 c19 0 35 5 35 10 0 6 -16 10 -35 10 -32 0 -35 2 -35 30 0 20 -5 30 -15
30 -10 0 -15 -10 -15 -30z"/>
<path d="M2150 1170 l0 -130 445 0 445 0 0 130 0 130 -445 0 -445 0 0 -130z
m860 0 l0 -110 -417 2 -418 3 -3 108 -3 107 421 0 420 0 0 -110z"/>
<path d="M3621 1272 c-45 -14 -37 -32 11 -26 34 5 48 2 61 -11 27 -26 20 -35
-26 -35 -57 0 -87 -22 -87 -64 0 -53 49 -78 100 -52 17 8 30 10 30 5 0 -5 7
-9 15 -9 23 0 21 140 -2 169 -20 23 -65 33 -102 23z m85 -107 c9 -23 -23 -65
-50 -65 -53 0 -62 60 -11 71 48 11 55 10 61 -6z"/>
<path d="M3868 1266 c-16 -8 -28 -11 -28 -5 0 5 -7 9 -15 9 -13 0 -15 -22 -15
-135 0 -113 2 -135 15 -135 11 0 15 12 15 50 l0 49 30 -17 c27 -15 32 -16 57
-2 39 22 55 57 49 110 -3 32 -11 51 -31 67 -31 27 -40 28 -77 9z m49 -24 c6
-4 17 -20 23 -36 26 -69 -40 -138 -82 -86 -46 56 3 158 59 122z"/>
<path d="M4066 1272 c-48 -11 -46 -34 2 -26 43 7 82 -8 82 -31 0 -11 -11 -15
-39 -15 -45 0 -91 -31 -91 -61 0 -55 59 -85 105 -55 14 9 25 12 25 6 0 -5 7
-10 15 -10 24 0 21 151 -2 173 -23 20 -60 27 -97 19z m84 -114 c0 -48 -62 -77
-91 -42 -24 29 10 56 79 63 6 0 12 -9 12 -21z"/>
<path d="M4308 1266 c-16 -8 -28 -11 -28 -5 0 5 -7 9 -15 9 -12 0 -15 -17 -15
-95 0 -78 3 -95 15 -95 12 0 15 14 15 65 0 70 20 105 60 105 11 0 20 7 20 15
0 19 -17 19 -52 1z"/>
<path d="M4598 1265 c-16 -7 -28 -10 -28 -4 0 5 -7 9 -15 9 -12 0 -15 -17 -15
-95 0 -78 3 -95 15 -95 12 0 15 14 15 68 0 71 16 102 51 102 30 0 39 -24 39
-97 0 -56 3 -73 14 -73 10 0 15 19 18 71 3 55 8 74 23 85 48 35 75 4 75 -87 0
-55 3 -69 15 -69 12 0 15 15 15 71 0 79 -10 106 -46 119 -26 10 -61 -1 -76
-24 -5 -7 -11 -6 -20 6 -19 24 -50 29 -80 13z"/>
<path d="M4925 1266 c-17 -7 -36 -25 -43 -40 -40 -87 24 -171 114 -150 57 14
57 35 0 28 -51 -7 -86 12 -86 48 0 16 9 18 70 18 68 0 70 1 70 24 0 31 -37 74
-70 80 -14 3 -39 0 -55 -8z m79 -38 c24 -34 20 -38 -39 -38 -59 0 -70 13 -39
44 22 23 60 20 78 -6z"/>
<path d="M5158 1264 c-16 -8 -28 -10 -28 -4 0 5 -7 10 -15 10 -12 0 -15 -17
-15 -95 0 -78 3 -95 15 -95 11 0 15 13 15 54 0 71 13 104 45 112 43 11 55 -10
55 -92 0 -59 3 -74 15 -74 12 0 15 15 15 78 0 83 -4 93 -37 111 -27 14 -32 14
-65 -5z"/>
<path d="M3330 1175 c0 -11 12 -15 45 -15 33 0 45 4 45 15 0 11 -12 15 -45 15
-33 0 -45 -4 -45 -15z"/>
</g>
</svg>
